<svg width="292" height="63" viewBox="0 0 292 63" fill="none" xmlns="http://www.w3.org/2000/svg">
<path d="M5.18844 6.176C10.7564 5.792 15.6524 5.6 19.8764 5.6C31.7804 5.6 37.7324 9.8 37.7324 18.2C37.7324 22.088 36.7244 25.496 34.7084 28.424C33.6524 30.008 32.0204 31.28 29.8124 32.24C27.6044 33.152 24.9404 33.608 21.8204 33.608H11.1644V56H5.18844V6.176ZM19.9484 6.32C17.1644 6.32 14.2364 6.488 11.1644 6.824V32.888H21.8204C28.5884 32.6 31.9724 27.752 31.9724 18.344C31.9724 14.504 30.9644 11.552 28.9484 9.488C26.9324 7.376 23.9324 6.32 19.9484 6.32ZM50.8724 56C48.9044 56 47.3924 55.568 46.3364 54.704C45.3284 53.84 44.8004 52.976 44.7524 52.112L44.6804 50.888V20H49.7204V50.888C49.7204 52.28 49.9844 53.36 50.5124 54.128C51.0884 54.848 51.6404 55.232 52.1684 55.28L53.0324 55.424H55.2644V56H50.8724ZM45.1124 11.936C44.5364 11.36 44.2484 10.64 44.2484 9.776C44.2484 8.912 44.5364 8.192 45.1124 7.616C45.6884 6.992 46.4084 6.68 47.2724 6.68C48.1364 6.68 48.8564 6.992 49.4324 7.616C50.0564 8.192 50.3684 8.912 50.3684 9.776C50.3684 10.64 50.0564 11.36 49.4324 11.936C48.8564 12.512 48.1364 12.8 47.2724 12.8C46.4084 12.8 45.6884 12.512 45.1124 11.936ZM62.4763 20.576V20H87.4603V20.576L65.7163 55.424H82.9243C86.2363 55.424 88.2283 54.464 88.9003 52.544L89.3323 52.76C89.3323 52.952 89.1643 53.288 88.8283 53.768C88.4923 54.2 88.1083 54.56 87.6763 54.848C86.5243 55.616 84.9403 56 82.9243 56H60.6763V55.424L82.4203 20.576H62.4763ZM96.1559 20.576V20H121.14V20.576L99.3959 55.424H116.604C119.916 55.424 121.908 54.464 122.58 52.544L123.012 52.76C123.012 52.952 122.844 53.288 122.508 53.768C122.172 54.2 121.788 54.56 121.356 54.848C120.204 55.616 118.62 56 116.604 56H94.3559V55.424L116.1 20.576H96.1559ZM158.132 56C154.868 56 152.636 55.376 151.436 54.128C150.332 53.072 149.78 52.16 149.78 51.392V49.88C147.428 54.152 143.66 56.288 138.476 56.288C132.428 56.288 128.996 53.552 128.18 48.08C128.084 47.504 128.036 46.928 128.036 46.352C128.036 45.728 128.132 45.056 128.324 44.336C128.516 43.616 129.068 42.824 129.98 41.96C131.804 40.232 135.812 39.176 142.004 38.792C143.54 38.648 144.956 38.576 146.252 38.576C147.548 38.576 148.724 38.624 149.78 38.72V26.768C149.684 26.72 149.684 26.504 149.78 26.12C149.876 25.688 149.78 25.16 149.492 24.536C149.252 23.864 148.916 23.216 148.484 22.592C148.052 21.968 147.284 21.44 146.18 21.008C145.076 20.528 143.636 20.288 141.86 20.288C140.084 20.288 137.996 20.624 135.596 21.296C133.244 21.92 131.516 22.544 130.412 23.168L130.124 22.664C134.396 20.696 138.74 19.712 143.156 19.712C148.1 19.712 151.364 20.6 152.948 22.376C154.196 23.768 154.82 25.232 154.82 26.768V50.888C154.82 52.28 155.084 53.36 155.612 54.128C156.188 54.848 156.764 55.232 157.34 55.28L158.132 55.424H160.364V56H158.132ZM139.628 55.712C142.172 55.712 144.452 54.848 146.468 53.12C148.532 51.344 149.636 49.64 149.78 48.008V39.296C148.484 39.2 147.164 39.152 145.82 39.152C144.524 39.152 143.228 39.224 141.932 39.368C138.284 39.8 135.908 40.616 134.804 41.816C133.7 43.016 133.148 44.672 133.148 46.784C133.148 47.168 133.172 47.6 133.22 48.08C133.652 53.168 135.788 55.712 139.628 55.712Z" fill="#FAFAFA"/>
<path d="M219.337 56C215.113 56 212.449 54.896 211.345 52.688C211.105 52.208 210.985 51.776 210.985 51.392V2.072H216.025V50.888C216.025 52.28 216.289 53.36 216.816 54.128C217.393 54.848 217.969 55.232 218.545 55.28L219.337 55.424H221.569V56H219.337ZM232.935 56C230.967 56 229.455 55.568 228.399 54.704C227.391 53.84 226.863 52.976 226.815 52.112L226.743 50.888V20H231.783V50.888C231.783 52.28 232.047 53.36 232.575 54.128C233.151 54.848 233.703 55.232 234.231 55.28L235.095 55.424H237.327V56H232.935ZM227.175 11.936C226.599 11.36 226.311 10.64 226.311 9.776C226.311 8.912 226.599 8.192 227.175 7.616C227.751 6.992 228.471 6.68 229.335 6.68C230.199 6.68 230.919 6.992 231.495 7.616C232.119 8.192 232.431 8.912 232.431 9.776C232.431 10.64 232.119 11.36 231.495 11.936C230.919 12.512 230.199 12.8 229.335 12.8C228.471 12.8 227.751 12.512 227.175 11.936ZM247.885 16.616V20H253.573V20.576H247.885V56H242.845V20.576H241.333V20H242.845V16.616C242.845 11.384 243.973 7.664 246.229 5.456C248.485 3.2 252.133 2.048 257.173 2V2.576C253.861 2.624 251.485 3.752 250.045 5.96C248.605 8.12 247.885 11.672 247.885 16.616ZM263.534 38.432C263.534 44.384 264.566 48.752 266.63 51.536C268.742 54.32 271.502 55.712 274.91 55.712C279.71 55.712 283.982 54.992 287.726 53.552L287.942 54.056C284.102 55.544 279.758 56.288 274.91 56.288C270.11 56.288 266.198 54.848 263.174 51.968C260.15 49.088 258.638 44.648 258.638 38.648C258.638 32.648 260.222 27.992 263.39 24.68C266.558 21.368 270.59 19.712 275.486 19.712C279.422 19.712 282.734 20.888 285.422 23.24C288.11 25.592 289.454 29.072 289.454 33.68C289.454 33.92 289.454 34.16 289.454 34.4H263.75C263.606 35.696 263.534 37.04 263.534 38.432ZM284.558 33.824C284.51 29.216 283.622 25.808 281.894 23.6C280.166 21.392 277.934 20.288 275.198 20.288C272.462 20.288 270.014 21.488 267.854 23.888C265.742 26.288 264.398 29.6 263.822 33.824H284.558Z" fill="#FAFAFA"/>
<path d="M197.092 51.232V52H192.484L191.332 61.6H183.748L184.804 52H162.052L196.42 4L197.092 4.384C187.62 17.568 176.452 33.184 163.588 51.232H184.9L188.068 24.736H195.748L192.58 51.232H197.092Z" fill="#FE9E45"/>
</svg>
